<svg id="Layer_1" data-name="Layer 1" xmlns="http://www.w3.org/2000/svg" viewBox="0 0 361.97 105.28"><defs><style>.cls-1,.cls-4{fill:#010101;}.cls-2,.cls-4{opacity:0.7;}.cls-3{opacity:0.75;}</style></defs><title>forgutowski [Recovered]</title><path class="cls-1" d="M208.45,365.14a15,15,0,0,1-5.77-5.91,17.55,17.55,0,0,1-2.11-8.69,18.51,18.51,0,0,1,2.07-8.76,15.44,15.44,0,0,1,14-8.42,13.83,13.83,0,0,1,6.72,1.66,12.38,12.38,0,0,1,4.82,4.65l.14-.07v-5.84h5.5v33.08h-5.3v-6h-.07a12.77,12.77,0,0,1-4.85,4.72,14.21,14.21,0,0,1-7,1.66A16.22,16.22,0,0,1,208.45,365.14Zm14.6-4.38a10.79,10.79,0,0,0,4-4.14,12.36,12.36,0,0,0,1.49-6.08,13.36,13.36,0,0,0-1.43-6.18,11,11,0,0,0-3.93-4.38,10.47,10.47,0,0,0-5.71-1.6,11,11,0,0,0-5.7,1.53,11.14,11.14,0,0,0-4.11,4.28,12.83,12.83,0,0,0-1.53,6.35,12.37,12.37,0,0,0,1.43,6,10.58,10.58,0,0,0,4,4.18,11.36,11.36,0,0,0,5.91,1.53A10.93,10.93,0,0,0,223.05,360.76Z" transform="translate(-129.59 -297.76)"/><path class="cls-1" d="M246.14,333.76l10.12,26.08h.06l10.12-26.08h5.91L258.9,366.84h-5.29l-13.45-33.08Z" transform="translate(-129.59 -297.76)"/><path class="cls-1" d="M279.82,357V338.52h-4.28v-4.76h4.28V322.49l5.5-.61v11.88h10.93v4.76H285.32v17.65a8.74,8.74,0,0,0,.88,4.52,3.41,3.41,0,0,0,3.13,1.39,12,12,0,0,0,5.63-1.69l1.43,4.82a15.86,15.86,0,0,1-3.46,1.49,16.39,16.39,0,0,1-4.55.54Q279.82,367.24,279.82,357Z" transform="translate(-129.59 -297.76)"/><path class="cls-1" d="M308.1,365a15.79,15.79,0,0,1-6-6.07,18.39,18.39,0,0,1,0-17.22,15.69,15.69,0,0,1,6-6.11,17.57,17.57,0,0,1,8.93-2.24,17.81,17.81,0,0,1,8.73,2.14,15.42,15.42,0,0,1,6.11,6,18.67,18.67,0,0,1,0,17.62,15.46,15.46,0,0,1-6.11,6,17.81,17.81,0,0,1-8.73,2.14A17.57,17.57,0,0,1,308.1,365Zm14.67-4.28a10.84,10.84,0,0,0,4.15-4.21,12.47,12.47,0,0,0,1.52-6.18,12.72,12.72,0,0,0-1.49-6.18,11,11,0,0,0-4.11-4.24A11.94,11.94,0,0,0,311,340a10.88,10.88,0,0,0-4,4.31,12.81,12.81,0,0,0-1.42,6,12.34,12.34,0,0,0,1.46,6,11.1,11.1,0,0,0,10,5.91A11.31,11.31,0,0,0,322.77,360.72Z" transform="translate(-129.59 -297.76)"/><path class="cls-1" d="M343,357V338.52h-4.28v-4.76H343V322.49l5.5-.61v11.88h10.94v4.76H348.54v17.65a8.72,8.72,0,0,0,.89,4.52,3.39,3.39,0,0,0,3.12,1.39,12.09,12.09,0,0,0,5.64-1.69l1.42,4.82a15.65,15.65,0,0,1-3.46,1.49,16.34,16.34,0,0,1-4.55.54Q343,367.24,343,357Z" transform="translate(-129.59 -297.76)"/><path class="cls-1" d="M386.27,335.39a15.13,15.13,0,0,1,6.07,5.91,17.94,17.94,0,0,1,2.25,9.17,19.51,19.51,0,0,1-1.87,8.69,13.85,13.85,0,0,1-5.47,5.94,16.53,16.53,0,0,1-8.62,2.14,16.07,16.07,0,0,1-8.36-2.1,13.75,13.75,0,0,1-5.36-5.77,18.33,18.33,0,0,1-1.83-8.29,16.9,16.9,0,0,1,.2-2.44h25.8a11.17,11.17,0,0,0-3.76-7.58,11.91,11.91,0,0,0-8-2.75,20,20,0,0,0-9.71,2.65l-2.18-4.48a24.59,24.59,0,0,1,12.23-3.12A18.15,18.15,0,0,1,386.27,335.39Zm-.65,24.45a11.17,11.17,0,0,0,3.33-6.72H368.64a10.09,10.09,0,0,0,3.06,6.72,11.11,11.11,0,0,0,13.92,0Z" transform="translate(-129.59 -297.76)"/><path class="cls-1" d="M408.3,316.85v35l.07.07,16.23-18.14h6.66L418.9,347.41l12.49,19.43h-6.31l-10-15.55-6.79,7.33v8.22h-5.5v-50Z" transform="translate(-129.59 -297.76)"/><path class="cls-1" d="M457.3,335.39a15.15,15.15,0,0,1,6.08,5.91,18,18,0,0,1,2.24,9.17,19.38,19.38,0,0,1-1.87,8.69,13.82,13.82,0,0,1-5.46,5.94,16.57,16.57,0,0,1-8.63,2.14,16,16,0,0,1-8.35-2.1,13.77,13.77,0,0,1-5.37-5.77,18.42,18.42,0,0,1-1.63-10.73h25.81a11.18,11.18,0,0,0-3.77-7.58,11.89,11.89,0,0,0-8-2.75,20,20,0,0,0-9.71,2.65l-2.17-4.48a24.55,24.55,0,0,1,12.22-3.12A18.12,18.12,0,0,1,457.3,335.39Zm-.64,24.45a11.21,11.21,0,0,0,3.32-6.72h-20.3a10.08,10.08,0,0,0,3.05,6.72,11.13,11.13,0,0,0,13.93,0Z" transform="translate(-129.59 -297.76)"/><path class="cls-1" d="M479.34,333.76v6.05h.13a13.68,13.68,0,0,1,4.59-4.75,11.38,11.38,0,0,1,6.14-1.7,9.49,9.49,0,0,1,1.36.07v6.11l-2.17-.14a9.17,9.17,0,0,0-7.34,3.19,12.35,12.35,0,0,0-2.71,8.29v16h-5.5V333.76Z" transform="translate(-129.59 -297.76)"/><path class="cls-1" d="M246.11,390.23l.78-1.17a3.89,3.89,0,0,0,1.22.83,4,4,0,0,0,1.59.28,2.11,2.11,0,0,0,1.28-.34,1.08,1.08,0,0,0,.47-.9.84.84,0,0,0-.24-.62,1.6,1.6,0,0,0-.59-.39c-.22-.1-.68-.27-1.35-.52a6.22,6.22,0,0,1-2.06-1.07,2.38,2.38,0,0,1-.3-3,2.55,2.55,0,0,1,1.08-.88,3.51,3.51,0,0,1,1.54-.33,4.88,4.88,0,0,1,3.17,1.14l-.79,1.2a3.51,3.51,0,0,0-2.44-1,1.7,1.7,0,0,0-1,.3,1,1,0,0,0-.42.82,1,1,0,0,0,.43.8,5.42,5.42,0,0,0,1.3.63l.46.17a16.13,16.13,0,0,1,1.57.69,2.38,2.38,0,0,1,.86.77,2.07,2.07,0,0,1,.32,1.22,2.44,2.44,0,0,1-.85,1.91,3.57,3.57,0,0,1-2.45.75A5.27,5.27,0,0,1,246.11,390.23Z" transform="translate(-129.59 -297.76)"/><path class="cls-1" d="M256.53,391a4.21,4.21,0,0,1-1.6-1.64,4.93,4.93,0,0,1-.59-2.42,5.14,5.14,0,0,1,.58-2.44,4.31,4.31,0,0,1,3.9-2.34,3.85,3.85,0,0,1,1.87.47,3.53,3.53,0,0,1,1.34,1.29l0,0v-1.62h1.53v9.19h-1.47v-1.66h0a3.53,3.53,0,0,1-1.35,1.31,3.91,3.91,0,0,1-1.93.46A4.51,4.51,0,0,1,256.53,391Zm4.06-1.22a2.86,2.86,0,0,0,1.11-1.15,3.39,3.39,0,0,0,.42-1.69,3.66,3.66,0,0,0-.4-1.72,3.14,3.14,0,0,0-1.09-1.22,3.11,3.11,0,0,0-3.17,0,3,3,0,0,0-1.14,1.18,3.52,3.52,0,0,0-.43,1.77,3.37,3.37,0,0,0,.4,1.66,2.88,2.88,0,0,0,1.11,1.16,3.11,3.11,0,0,0,1.64.43A3,3,0,0,0,260.59,389.73Z" transform="translate(-129.59 -297.76)"/><path class="cls-1" d="M266.56,388.68v-5.13h-1.19v-1.32h1.19v-3.14l1.53-.17v3.31h3v1.32h-3v4.91a2.46,2.46,0,0,0,.24,1.25.94.94,0,0,0,.87.39,3.4,3.4,0,0,0,1.57-.47l.39,1.34a4.07,4.07,0,0,1-2.22.56C267.35,391.53,266.56,390.58,266.56,388.68Z" transform="translate(-129.59 -297.76)"/><path class="cls-1" d="M274.81,382.23v9.19h-1.53v-9.19Z" transform="translate(-129.59 -297.76)"/><path class="cls-1" d="M281.11,386.19a16.52,16.52,0,0,1,1.58.69,2.46,2.46,0,0,1,.86.77,2.14,2.14,0,0,1,.32,1.22,2.48,2.48,0,0,1-.85,1.91,3.62,3.62,0,0,1-2.46.75h-.05l-.21.48v0a2,2,0,0,1,1.21.43,1.33,1.33,0,0,1,.45,1.06,1.25,1.25,0,0,1-.51,1,2.39,2.39,0,0,1-1.51.4,5.88,5.88,0,0,1-1.06-.11V394a3.17,3.17,0,0,0,.91.13,1.49,1.49,0,0,0,.75-.18.58.58,0,0,0,.31-.52.66.66,0,0,0-.41-.57,2.44,2.44,0,0,0-1.16-.22l0-.57.28-.64a5.12,5.12,0,0,1-2.6-1.23l.77-1.17a4,4,0,0,0,1.23.83,4,4,0,0,0,1.58.28,2.17,2.17,0,0,0,1.29-.34,1.1,1.1,0,0,0,.47-.9.81.81,0,0,0-.25-.62,1.56,1.56,0,0,0-.58-.39c-.23-.1-.68-.27-1.36-.52a6.33,6.33,0,0,1-2.06-1.07,2.17,2.17,0,0,1-.7-1.74,2.2,2.2,0,0,1,.4-1.27,2.62,2.62,0,0,1,1.08-.88,3.54,3.54,0,0,1,1.54-.33,4.86,4.86,0,0,1,3.17,1.14l-.79,1.2a3.47,3.47,0,0,0-2.43-1,1.66,1.66,0,0,0-1,.3,1,1,0,0,0,0,1.62,5.42,5.42,0,0,0,1.3.63Z" transform="translate(-129.59 -297.76)"/><path class="cls-1" d="M291.83,382.23l2.82,7.25h0l2.82-7.25h1.64l-3.74,9.19h-1.47l-3.74-9.19Z" transform="translate(-129.59 -297.76)"/><path class="cls-1" d="M306.3,382.68a4.17,4.17,0,0,1,1.69,1.64,5,5,0,0,1,.63,2.55,5.52,5.52,0,0,1-.52,2.42,4,4,0,0,1-1.52,1.65,4.59,4.59,0,0,1-2.4.59,4.44,4.44,0,0,1-2.32-.58,3.8,3.8,0,0,1-1.49-1.61,5.05,5.05,0,0,1-.51-2.3,6.39,6.39,0,0,1,.05-.68h7.18a3.09,3.09,0,0,0-1-2.1,3.31,3.31,0,0,0-2.22-.77,5.55,5.55,0,0,0-2.7.74l-.6-1.25a6.8,6.8,0,0,1,3.4-.87A5,5,0,0,1,306.3,382.68Zm-.18,6.8a3.18,3.18,0,0,0,.93-1.87H301.4a2.85,2.85,0,0,0,.85,1.87,3.09,3.09,0,0,0,3.87,0Z" transform="translate(-129.59 -297.76)"/><path class="cls-1" d="M315.22,390.23l.78-1.17a3.89,3.89,0,0,0,1.22.83,4,4,0,0,0,1.59.28,2.11,2.11,0,0,0,1.28-.34,1.08,1.08,0,0,0,.47-.9.84.84,0,0,0-.24-.62,1.69,1.69,0,0,0-.59-.39c-.22-.1-.68-.27-1.36-.52a6.26,6.26,0,0,1-2.05-1.07,2.14,2.14,0,0,1-.7-1.74,2.19,2.19,0,0,1,.39-1.27,2.65,2.65,0,0,1,1.09-.88,3.51,3.51,0,0,1,1.54-.33,4.88,4.88,0,0,1,3.17,1.14l-.79,1.2a3.51,3.51,0,0,0-2.44-1,1.66,1.66,0,0,0-1,.3,1,1,0,0,0-.42.82,1,1,0,0,0,.43.8,5.42,5.42,0,0,0,1.3.63l.46.17a16.13,16.13,0,0,1,1.57.69,2.38,2.38,0,0,1,.86.77,2.14,2.14,0,0,1,.32,1.22,2.44,2.44,0,0,1-.85,1.91,3.57,3.57,0,0,1-2.45.75A5.27,5.27,0,0,1,315.22,390.23Z" transform="translate(-129.59 -297.76)"/><path class="cls-1" d="M332.44,387a1.19,1.19,0,0,0,0,.25h-7.17a3.17,3.17,0,0,0,1,2.07,3,3,0,0,0,2.15.78,3.27,3.27,0,0,0,2.66-1.23l1.08.91a4.56,4.56,0,0,1-3.8,1.71,4.9,4.9,0,0,1-2.4-.58,4.25,4.25,0,0,1-1.65-1.66,5.08,5.08,0,0,1-.59-2.46,5,5,0,0,1,.58-2.43,4.23,4.23,0,0,1,1.62-1.68,4.43,4.43,0,0,1,2.33-.61,4.13,4.13,0,0,1,2.19.59,4,4,0,0,1,1.5,1.62,5,5,0,0,1,.54,2.34A3.79,3.79,0,0,1,332.44,387Zm-6.15-2.85a3,3,0,0,0-1,1.85h5.65a3.11,3.11,0,0,0-.89-1.84,2.54,2.54,0,0,0-1.83-.69A2.91,2.91,0,0,0,326.29,384.19Z" transform="translate(-129.59 -297.76)"/><path class="cls-1" d="M336.23,382.23v1.68h0a3.75,3.75,0,0,1,1.27-1.32,3.15,3.15,0,0,1,1.71-.48l.38,0v1.7l-.6,0a2.54,2.54,0,0,0-2,.89,3.4,3.4,0,0,0-.76,2.3v4.44H334.7v-9.19Z" transform="translate(-129.59 -297.76)"/><path class="cls-1" d="M342,382.23l2.81,7.25h0l2.81-7.25h1.64l-3.73,9.19H344.1l-3.73-9.19Z" transform="translate(-129.59 -297.76)"/><path class="cls-1" d="M351.28,380.23a1.06,1.06,0,0,1-.32-.78,1,1,0,0,1,.32-.77,1,1,0,0,1,.79-.32,1,1,0,0,1,.79.32,1,1,0,0,1,.32.77,1.06,1.06,0,0,1-.32.78,1.09,1.09,0,0,1-.79.32A1.07,1.07,0,0,1,351.28,380.23Zm1.55,2v9.19H351.3v-9.19Z" transform="translate(-129.59 -297.76)"/><path class="cls-1" d="M355,390.23l.77-1.17a4,4,0,0,0,1.23.83,4,4,0,0,0,1.58.28,2.17,2.17,0,0,0,1.29-.34,1.1,1.1,0,0,0,.47-.9.85.85,0,0,0-.25-.62,1.65,1.65,0,0,0-.58-.39c-.23-.1-.68-.27-1.36-.52a6.33,6.33,0,0,1-2.06-1.07,2.38,2.38,0,0,1-.3-3,2.55,2.55,0,0,1,1.08-.88,3.54,3.54,0,0,1,1.54-.33,4.88,4.88,0,0,1,3.17,1.14l-.79,1.2a3.5,3.5,0,0,0-2.43-1,1.71,1.71,0,0,0-1,.3,1,1,0,0,0-.42.82,1,1,0,0,0,.43.8,5.53,5.53,0,0,0,1.31.63l.45.17a16.52,16.52,0,0,1,1.58.69,2.43,2.43,0,0,1,.85.77,2.07,2.07,0,0,1,.32,1.22,2.47,2.47,0,0,1-.84,1.91,3.62,3.62,0,0,1-2.46.75A5.23,5.23,0,0,1,355,390.23Z" transform="translate(-129.59 -297.76)"/><path class="cls-1" d="M370.72,382.23v1.66h0a3.78,3.78,0,0,1,1.34-1.3,3.36,3.36,0,0,1,1.74-.48,3,3,0,0,1,1.76.51,3.09,3.09,0,0,1,1.09,1.46h0a4,4,0,0,1,1.42-1.45,3.88,3.88,0,0,1,2-.52,2.84,2.84,0,0,1,2.35,1,4.72,4.72,0,0,1,.83,3v5.28h-1.53v-4.87a4.07,4.07,0,0,0-.53-2.27,1.79,1.79,0,0,0-1.57-.77,2.28,2.28,0,0,0-1.31.41,2.7,2.7,0,0,0-.94,1.17,4.42,4.42,0,0,0-.34,1.76v4.57H375.5v-4.87a4,4,0,0,0-.55-2.26,1.83,1.83,0,0,0-1.59-.78,2.35,2.35,0,0,0-1.9.92,3.76,3.76,0,0,0-.74,2.42v4.57h-1.53v-9.19Z" transform="translate(-129.59 -297.76)"/><path class="cls-1" d="M391.74,382.68a4.23,4.23,0,0,1,1.69,1.64,5.07,5.07,0,0,1,.62,2.55,5.38,5.38,0,0,1-.52,2.42,3.85,3.85,0,0,1-1.52,1.65,4.53,4.53,0,0,1-2.39.59,4.48,4.48,0,0,1-2.33-.58,3.86,3.86,0,0,1-1.49-1.61,5.05,5.05,0,0,1-.51-2.3,4.7,4.7,0,0,1,.06-.68h7.17a3.12,3.12,0,0,0-1-2.1,3.31,3.31,0,0,0-2.22-.77,5.55,5.55,0,0,0-2.7.74L386,383a6.86,6.86,0,0,1,3.4-.87A5,5,0,0,1,391.74,382.68Zm-.18,6.8a3.18,3.18,0,0,0,.93-1.87h-5.65a2.85,2.85,0,0,0,.85,1.87,3.09,3.09,0,0,0,3.87,0Z" transform="translate(-129.59 -297.76)"/><path class="cls-1" d="M397.87,382.23v1.68h0a3.77,3.77,0,0,1,1.28-1.32,3.15,3.15,0,0,1,1.71-.48l.37,0v1.7l-.6,0a2.54,2.54,0,0,0-2,.89,3.44,3.44,0,0,0-.75,2.3v4.44h-1.53v-9.19Z" transform="translate(-129.59 -297.76)"/><path class="cls-1" d="M404.53,377.53v9.72l0,0,4.51-5h1.85L407.47,386l3.48,5.4h-1.76l-2.77-4.32-1.89,2v2.28H403V377.53Z" transform="translate(-129.59 -297.76)"/><path class="cls-1" d="M418.15,382.68a4.23,4.23,0,0,1,1.69,1.64,5.07,5.07,0,0,1,.62,2.55,5.38,5.38,0,0,1-.52,2.42,3.85,3.85,0,0,1-1.52,1.65,4.53,4.53,0,0,1-2.39.59,4.48,4.48,0,0,1-2.33-.58,3.86,3.86,0,0,1-1.49-1.61,5.05,5.05,0,0,1-.51-2.3,4.7,4.7,0,0,1,.06-.68h7.17a3.09,3.09,0,0,0-1.05-2.1,3.27,3.27,0,0,0-2.21-.77,5.55,5.55,0,0,0-2.7.74l-.61-1.25a6.86,6.86,0,0,1,3.4-.87A5,5,0,0,1,418.15,382.68Zm-.18,6.8a3.11,3.11,0,0,0,.92-1.87h-5.64a2.85,2.85,0,0,0,.85,1.87,3.09,3.09,0,0,0,3.87,0Z" transform="translate(-129.59 -297.76)"/><path class="cls-1" d="M427.09,383.6l0-.05h-5v-1.32h7.15v1.09l-5.36,6.76,0,0h5.34v1.32h-7.43v-1.11Z" transform="translate(-129.59 -297.76)"/><path class="cls-1" d="M431.49,380.23a1.06,1.06,0,0,1-.32-.78,1,1,0,0,1,.32-.77,1,1,0,0,1,.79-.32,1,1,0,0,1,.79.32,1,1,0,0,1,.32.77,1.06,1.06,0,0,1-.32.78,1.09,1.09,0,0,1-.79.32A1.07,1.07,0,0,1,431.49,380.23Zm1.54,2v9.19H431.5v-9.19Z" transform="translate(-129.59 -297.76)"/><g class="cls-2"><polygon class="cls-1" points="10.68 14.71 7.94 11.87 7.84 17.46 10.68 14.71"/><rect class="cls-1" x="133.85" y="305.93" width="10.22" height="2.79" transform="translate(318.99 -124.2) rotate(90.96)"/><polygon class="cls-1" points="8.06 4.44 10.9 1.7 10.8 7.28 8.06 4.44"/></g><g class="cls-2"><polygon class="cls-1" points="10.68 29.68 7.94 26.84 7.84 32.43 10.68 29.68"/><rect class="cls-1" x="133.85" y="320.9" width="10.22" height="2.79" transform="translate(333.96 -108.98) rotate(90.96)"/><polygon class="cls-1" points="8.06 19.41 10.9 16.67 10.8 22.25 8.06 19.41"/></g><g class="cls-2"><polygon class="cls-1" points="10.68 43.9 7.94 41.06 7.84 46.65 10.68 43.9"/><rect class="cls-1" x="133.85" y="335.13" width="10.22" height="2.79" transform="translate(348.18 -94.52) rotate(90.96)"/><polygon class="cls-1" points="8.06 33.63 10.9 30.89 10.8 36.47 8.06 33.63"/></g><g class="cls-2"><polygon class="cls-1" points="10.68 58.12 7.94 55.29 7.84 60.87 10.68 58.12"/><rect class="cls-1" x="133.85" y="349.35" width="10.22" height="2.79" transform="translate(362.4 -80.06) rotate(90.96)"/><polygon class="cls-1" points="8.06 47.85 10.9 45.11 10.8 50.69 8.06 47.85"/></g><g class="cls-2"><polygon class="cls-1" points="10.68 72.34 7.94 69.51 7.84 75.09 10.68 72.34"/><rect class="cls-1" x="133.85" y="363.57" width="10.22" height="2.79" transform="translate(376.62 -65.6) rotate(90.96)"/><polygon class="cls-1" points="8.06 62.08 10.9 59.33 10.8 64.91 8.06 62.08"/></g><g class="cls-2"><polygon class="cls-1" points="10.68 86.57 7.94 83.73 7.84 89.31 10.68 86.57"/><rect class="cls-1" x="133.85" y="377.79" width="10.22" height="2.79" transform="translate(390.84 -51.14) rotate(90.96)"/><polygon class="cls-1" points="8.06 76.3 10.9 73.55 10.8 79.14 8.06 76.3"/></g><g class="cls-2"><polygon class="cls-1" points="10.68 102.28 7.94 99.45 7.84 105.03 10.68 102.28"/><rect class="cls-1" x="133.85" y="393.51" width="10.22" height="2.79" transform="translate(406.55 -35.16) rotate(90.96)"/><polygon class="cls-1" points="8.06 92.02 10.9 89.27 10.8 94.85 8.06 92.02"/></g><g class="cls-2"><polygon class="cls-1" points="6.29 6.92 3.68 5.04 6.27 3.74 6.29 6.92"/><polygon class="cls-1" points="6.29 6.92 1.54 9.29 0.23 6.76 4.97 4.39 6.29 6.92"/><polygon class="cls-1" points="0.23 6.76 0.25 9.93 2.84 8.64 0.23 6.76"/></g><g class="cls-2"><polygon class="cls-1" points="6.17 11.12 3.64 8.88 6.29 7.66 6.17 11.12"/><polygon class="cls-1" points="6.17 11.12 1.32 13.36 0.12 10.51 4.96 8.27 6.17 11.12"/><polygon class="cls-1" points="0.12 10.51 0 13.97 2.65 12.75 0.12 10.51"/></g><g class="cls-2"><polygon class="cls-1" points="6.17 15.61 3.64 13.37 6.29 12.15 6.17 15.61"/><polygon class="cls-1" points="6.17 15.61 1.32 17.85 0.12 15 4.96 12.76 6.17 15.61"/><polygon class="cls-1" points="0.12 15 0 18.46 2.65 17.24 0.12 15"/></g><g class="cls-2"><polygon class="cls-1" points="6.29 21.14 3.68 19.26 6.27 17.96 6.29 21.14"/><polygon class="cls-1" points="6.29 21.14 1.54 23.51 0.23 20.98 4.97 18.61 6.29 21.14"/><polygon class="cls-1" points="0.23 20.98 0.25 24.16 2.84 22.86 0.23 20.98"/></g><g class="cls-2"><polygon class="cls-1" points="6.17 25.34 3.64 23.1 6.29 21.88 6.17 25.34"/><polygon class="cls-1" points="6.17 25.34 1.32 27.58 0.12 24.73 4.96 22.49 6.17 25.34"/><polygon class="cls-1" points="0.12 24.73 0 28.19 2.65 26.97 0.12 24.73"/></g><g class="cls-2"><polygon class="cls-1" points="6.17 29.83 3.64 27.59 6.29 26.37 6.17 29.83"/><polygon class="cls-1" points="6.17 29.83 1.32 32.07 0.12 29.22 4.96 26.98 6.17 29.83"/><polygon class="cls-1" points="0.12 29.22 0 32.69 2.65 31.46 0.12 29.22"/></g><g class="cls-2"><polygon class="cls-1" points="6.29 36.11 3.68 34.23 6.27 32.93 6.29 36.11"/><polygon class="cls-1" points="6.29 36.11 1.54 38.48 0.23 35.95 4.97 33.58 6.29 36.11"/><polygon class="cls-1" points="0.23 35.95 0.25 39.13 2.84 37.83 0.23 35.95"/></g><g class="cls-2"><polygon class="cls-1" points="6.17 40.31 3.64 38.07 6.29 36.85 6.17 40.31"/><polygon class="cls-1" points="6.17 40.31 1.32 42.55 0.12 39.7 4.96 37.46 6.17 40.31"/><polygon class="cls-1" points="0.12 39.7 0 43.16 2.65 41.94 0.12 39.7"/></g><g class="cls-2"><polygon class="cls-1" points="6.17 44.8 3.64 42.56 6.29 41.34 6.17 44.8"/><polygon class="cls-1" points="6.17 44.8 1.32 47.04 0.12 44.19 4.96 41.95 6.17 44.8"/><polygon class="cls-1" points="0.12 44.19 0 47.65 2.65 46.43 0.12 44.19"/></g><g class="cls-2"><polygon class="cls-1" points="6.29 50.33 3.68 48.45 6.27 47.16 6.29 50.33"/><polygon class="cls-1" points="6.29 50.33 1.54 52.7 0.23 50.17 4.97 47.8 6.29 50.33"/><polygon class="cls-1" points="0.23 50.17 0.25 53.35 2.84 52.05 0.23 50.17"/></g><g class="cls-2"><polygon class="cls-1" points="6.17 54.53 3.64 52.29 6.29 51.07 6.17 54.53"/><polygon class="cls-1" points="6.17 54.53 1.32 56.77 0.12 53.92 4.96 51.68 6.17 54.53"/><polygon class="cls-1" points="0.12 53.92 0 57.38 2.65 56.16 0.12 53.92"/></g><g class="cls-2"><polygon class="cls-1" points="6.17 59.02 3.64 56.78 6.29 55.56 6.17 59.02"/><polygon class="cls-1" points="6.17 59.02 1.32 61.26 0.12 58.41 4.96 56.17 6.17 59.02"/><polygon class="cls-1" points="0.12 58.41 0 61.88 2.65 60.65 0.12 58.41"/></g><g class="cls-2"><polygon class="cls-1" points="6.29 63.8 3.68 61.92 6.27 60.63 6.29 63.8"/><polygon class="cls-1" points="6.29 63.8 1.54 66.17 0.23 63.64 4.97 61.27 6.29 63.8"/><polygon class="cls-1" points="0.23 63.64 0.25 66.82 2.84 65.53 0.23 63.64"/></g><g class="cls-2"><polygon class="cls-1" points="6.17 68 3.64 65.77 6.29 64.54 6.17 68"/><polygon class="cls-1" points="6.17 68 1.32 70.25 0.12 67.4 4.96 65.15 6.17 68"/><polygon class="cls-1" points="0.12 67.4 0 70.86 2.65 69.63 0.12 67.4"/></g><g class="cls-2"><polygon class="cls-1" points="6.17 72.49 3.64 70.26 6.29 69.03 6.17 72.49"/><polygon class="cls-1" points="6.17 72.49 1.32 74.74 0.12 71.89 4.96 69.64 6.17 72.49"/><polygon class="cls-1" points="0.12 71.89 0 75.35 2.65 74.12 0.12 71.89"/></g><g class="cls-2"><polygon class="cls-1" points="6.29 78.03 3.68 76.14 6.27 74.85 6.29 78.03"/><polygon class="cls-1" points="6.29 78.03 1.54 80.39 0.23 77.86 4.97 75.5 6.29 78.03"/><polygon class="cls-1" points="0.23 77.86 0.25 81.04 2.84 79.75 0.23 77.86"/></g><g class="cls-2"><polygon class="cls-1" points="6.17 82.22 3.64 79.99 6.29 78.76 6.17 82.22"/><polygon class="cls-1" points="6.17 82.22 1.32 84.47 0.12 81.62 4.96 79.38 6.17 82.22"/><polygon class="cls-1" points="0.12 81.62 0 85.08 2.65 83.85 0.12 81.62"/></g><g class="cls-2"><polygon class="cls-1" points="6.17 86.71 3.64 84.48 6.29 83.25 6.17 86.71"/><polygon class="cls-1" points="6.17 86.72 1.32 88.96 0.12 86.11 4.96 83.87 6.17 86.72"/><polygon class="cls-1" points="0.12 86.11 0 89.57 2.65 88.34 0.12 86.11"/></g><g class="cls-2"><polygon class="cls-1" points="6.29 93 3.68 91.11 6.27 89.82 6.29 93"/><polygon class="cls-1" points="6.29 93 1.54 95.36 0.23 92.83 4.97 90.47 6.29 93"/><polygon class="cls-1" points="0.23 92.83 0.25 96.01 2.84 94.72 0.23 92.83"/></g><g class="cls-3"><polygon class="cls-1" points="6.17 97.19 3.64 94.96 6.29 93.73 6.17 97.19"/><polygon class="cls-1" points="6.17 97.19 1.32 99.44 0.12 96.59 4.96 94.34 6.17 97.19"/><polygon class="cls-1" points="0.12 96.59 0 100.05 2.65 98.82 0.12 96.59"/></g><g class="cls-3"><polygon class="cls-1" points="6.17 101.68 3.64 99.45 6.29 98.22 6.17 101.68"/><polygon class="cls-1" points="6.17 101.69 1.32 103.93 0.12 101.08 4.96 98.83 6.17 101.69"/><polygon class="cls-1" points="0.12 101.08 0 104.54 2.65 103.31 0.12 101.08"/></g><g class="cls-3"><polygon class="cls-1" points="47.37 3.18 44.76 1.29 47.35 0 47.37 3.18"/><polygon class="cls-1" points="47.37 3.18 42.63 5.54 41.31 3.02 46.05 0.65 47.37 3.18"/><polygon class="cls-1" points="41.31 3.02 41.33 6.19 43.92 4.9 41.31 3.02"/></g><g class="cls-2"><polygon class="cls-1" points="40.02 14.71 37.28 11.87 37.18 17.46 40.02 14.71"/><rect class="cls-1" x="163.19" y="305.93" width="10.22" height="2.79" transform="translate(348.82 -153.54) rotate(90.96)"/><polygon class="cls-1" points="37.4 4.44 40.23 1.7 40.14 7.28 37.4 4.44"/></g><g class="cls-2"><polygon class="cls-1" points="40.02 29.68 37.28 26.84 37.18 32.43 40.02 29.68"/><rect class="cls-1" x="163.19" y="320.9" width="10.22" height="2.79" transform="translate(363.79 -138.31) rotate(90.96)"/><polygon class="cls-1" points="37.4 19.41 40.23 16.67 40.14 22.25 37.4 19.41"/></g><g class="cls-2"><polygon class="cls-1" points="40.02 43.9 37.28 41.06 37.18 46.65 40.02 43.9"/><rect class="cls-1" x="163.19" y="335.13" width="10.22" height="2.79" transform="translate(378.01 -123.85) rotate(90.96)"/><polygon class="cls-1" points="37.4 33.63 40.23 30.89 40.14 36.47 37.4 33.63"/></g><g class="cls-2"><polygon class="cls-1" points="40.02 58.12 37.28 55.29 37.18 60.87 40.02 58.12"/><rect class="cls-1" x="163.19" y="349.35" width="10.22" height="2.79" transform="translate(392.23 -109.39) rotate(90.96)"/><polygon class="cls-1" points="37.4 47.85 40.23 45.11 40.14 50.69 37.4 47.85"/></g><g class="cls-2"><polygon class="cls-1" points="40.02 72.34 37.28 69.51 37.18 75.09 40.02 72.34"/><rect class="cls-1" x="163.19" y="363.57" width="10.22" height="2.79" transform="translate(406.45 -94.93) rotate(90.96)"/><polygon class="cls-1" points="37.4 62.08 40.23 59.33 40.14 64.91 37.4 62.08"/></g><g class="cls-2"><polygon class="cls-1" points="40.02 86.57 37.28 83.73 37.18 89.31 40.02 86.57"/><rect class="cls-1" x="163.19" y="377.79" width="10.22" height="2.79" transform="translate(420.67 -80.47) rotate(90.96)"/><polygon class="cls-1" points="37.4 76.3 40.23 73.55 40.14 79.14 37.4 76.3"/></g><g class="cls-2"><polygon class="cls-1" points="40.02 102.28 37.28 99.45 37.18 105.03 40.02 102.28"/><rect class="cls-1" x="163.19" y="393.51" width="10.22" height="2.79" transform="translate(436.38 -64.49) rotate(90.96)"/><polygon class="cls-1" points="37.4 92.02 40.23 89.27 40.14 94.85 37.4 92.02"/></g><g class="cls-2"><polygon class="cls-1" points="47.48 7.37 44.95 5.14 47.6 3.91 47.48 7.37"/><polygon class="cls-1" points="47.48 7.38 42.63 9.62 41.43 6.77 46.27 4.53 47.48 7.38"/><polygon class="cls-1" points="41.43 6.77 41.31 10.23 43.96 9.01 41.43 6.77"/></g><g class="cls-2"><polygon class="cls-1" points="47.48 11.87 44.95 9.63 47.6 8.4 47.48 11.87"/><polygon class="cls-1" points="47.48 11.87 42.63 14.11 41.43 11.26 46.27 9.02 47.48 11.87"/><polygon class="cls-1" points="41.43 11.26 41.31 14.72 43.96 13.5 41.43 11.26"/></g><g class="cls-2"><polygon class="cls-1" points="47.37 17.4 44.76 15.52 47.35 14.22 47.37 17.4"/><polygon class="cls-1" points="47.37 17.4 42.63 19.77 41.31 17.24 46.05 14.87 47.37 17.4"/><polygon class="cls-1" points="41.31 17.24 41.33 20.41 43.92 19.12 41.31 17.24"/></g><g class="cls-2"><polygon class="cls-1" points="47.48 21.59 44.95 19.36 47.6 18.13 47.48 21.59"/><polygon class="cls-1" points="47.48 21.6 42.63 23.84 41.43 20.99 46.27 18.75 47.48 21.6"/><polygon class="cls-1" points="41.43 20.99 41.31 24.45 43.96 23.23 41.43 20.99"/></g><g class="cls-2"><polygon class="cls-1" points="47.48 26.09 44.95 23.85 47.6 22.63 47.48 26.09"/><polygon class="cls-1" points="47.48 26.09 42.63 28.33 41.43 25.48 46.27 23.24 47.48 26.09"/><polygon class="cls-1" points="41.43 25.48 41.31 28.94 43.96 27.72 41.43 25.48"/></g><g class="cls-2"><polygon class="cls-1" points="47.37 32.37 44.76 30.48 47.35 29.19 47.37 32.37"/><polygon class="cls-1" points="47.37 32.37 42.63 34.74 41.31 32.21 46.05 29.84 47.37 32.37"/><polygon class="cls-1" points="41.31 32.21 41.33 35.38 43.92 34.09 41.31 32.21"/></g><g class="cls-2"><polygon class="cls-1" points="47.48 36.56 44.95 34.33 47.6 33.1 47.48 36.56"/><polygon class="cls-1" points="47.48 36.57 42.63 38.81 41.43 35.96 46.27 33.72 47.48 36.57"/><polygon class="cls-1" points="41.43 35.96 41.31 39.42 43.96 38.2 41.43 35.96"/></g><g class="cls-2"><polygon class="cls-1" points="47.48 41.06 44.95 38.82 47.6 37.59 47.48 41.06"/><polygon class="cls-1" points="47.48 41.06 42.63 43.3 41.43 40.45 46.27 38.21 47.48 41.06"/><polygon class="cls-1" points="41.43 40.45 41.31 43.91 43.96 42.69 41.43 40.45"/></g><g class="cls-2"><polygon class="cls-1" points="47.37 46.59 44.76 44.71 47.35 43.41 47.37 46.59"/><polygon class="cls-1" points="47.37 46.59 42.63 48.96 41.31 46.43 46.05 44.06 47.37 46.59"/><polygon class="cls-1" points="41.31 46.43 41.33 49.6 43.92 48.31 41.31 46.43"/></g><g class="cls-2"><polygon class="cls-1" points="47.48 50.79 44.95 48.55 47.6 47.33 47.48 50.79"/><polygon class="cls-1" points="47.48 50.79 42.63 53.03 41.43 50.18 46.27 47.94 47.48 50.79"/><polygon class="cls-1" points="41.43 50.18 41.31 53.64 43.96 52.42 41.43 50.18"/></g><g class="cls-2"><polygon class="cls-1" points="47.48 55.28 44.95 53.04 47.6 51.82 47.48 55.28"/><polygon class="cls-1" points="47.48 55.28 42.63 57.52 41.43 54.67 46.27 52.43 47.48 55.28"/><polygon class="cls-1" points="41.43 54.67 41.31 58.13 43.96 56.91 41.43 54.67"/></g><g class="cls-2"><polygon class="cls-1" points="47.37 60.06 44.76 58.18 47.35 56.88 47.37 60.06"/><polygon class="cls-1" points="47.37 60.06 42.63 62.43 41.31 59.9 46.05 57.53 47.37 60.06"/><polygon class="cls-1" points="41.31 59.9 41.33 63.08 43.92 61.78 41.31 59.9"/></g><g class="cls-2"><polygon class="cls-1" points="47.48 64.26 44.95 62.02 47.6 60.8 47.48 64.26"/><polygon class="cls-1" points="47.48 64.26 42.63 66.5 41.43 63.65 46.27 61.41 47.48 64.26"/><polygon class="cls-1" points="41.43 63.65 41.31 67.11 43.96 65.89 41.43 63.65"/></g><g class="cls-2"><polygon class="cls-1" points="47.48 68.75 44.95 66.51 47.6 65.29 47.48 68.75"/><polygon class="cls-1" points="47.48 68.75 42.63 71 41.43 68.14 46.27 65.9 47.48 68.75"/><polygon class="cls-1" points="41.43 68.14 41.31 71.61 43.96 70.38 41.43 68.14"/></g><g class="cls-2"><polygon class="cls-1" points="47.37 74.28 44.76 72.4 47.35 71.11 47.37 74.28"/><polygon class="cls-1" points="47.37 74.28 42.63 76.65 41.31 74.12 46.05 71.75 47.37 74.28"/><polygon class="cls-1" points="41.31 74.12 41.33 77.3 43.92 76 41.31 74.12"/></g><g class="cls-2"><polygon class="cls-1" points="47.48 78.48 44.95 76.24 47.6 75.02 47.48 78.48"/><polygon class="cls-1" points="47.48 78.48 42.63 80.72 41.43 77.88 46.27 75.63 47.48 78.48"/><polygon class="cls-1" points="41.43 77.88 41.31 81.34 43.96 80.11 41.43 77.88"/></g><g class="cls-2"><polygon class="cls-1" points="47.48 82.97 44.95 80.73 47.6 79.51 47.48 82.97"/><polygon class="cls-1" points="47.48 82.97 42.63 85.22 41.43 82.37 46.27 80.12 47.48 82.97"/><polygon class="cls-1" points="41.43 82.37 41.31 85.83 43.96 84.6 41.43 82.37"/></g><g class="cls-2"><polygon class="cls-1" points="47.45 89.25 44.84 87.37 47.43 86.08 47.45 89.25"/><polygon class="cls-1" points="47.44 89.25 42.7 91.62 41.39 89.09 46.13 86.72 47.44 89.25"/><polygon class="cls-1" points="41.39 89.09 41.41 92.27 44 90.97 41.39 89.09"/></g><g class="cls-2"><polygon class="cls-1" points="47.44 93.45 44.91 91.21 47.56 89.99 47.44 93.45"/><polygon class="cls-1" points="47.44 93.45 42.6 95.69 41.39 92.84 46.23 90.6 47.44 93.45"/><polygon class="cls-1" points="41.39 92.84 41.27 96.31 43.92 95.08 41.39 92.84"/></g><g class="cls-3"><polygon class="cls-1" points="47.44 97.94 44.91 95.7 47.56 94.48 47.44 97.94"/><polygon class="cls-1" points="47.44 97.94 42.6 100.19 41.39 97.34 46.23 95.09 47.44 97.94"/><polygon class="cls-1" points="41.39 97.34 41.27 100.8 43.92 99.57 41.39 97.34"/></g><rect class="cls-4" x="11.97" y="1.67" width="1.18" height="102.23"/><g class="cls-2"><path class="cls-1" d="M143.7,312.29l-.16-.13a1,1,0,0,1-.17-1.13l1-2c1-2,3.08-2.61,4.63-1.27h0a1,1,0,0,1,.17,1.13l-1.12,2.25C147.11,313,145.16,313.56,143.7,312.29Z" transform="translate(-129.59 -297.76)"/><path class="cls-1" d="M147.2,310.31c0,.17.12.31.25.3l.25,0c.92-.06,1-.79,1.58-2a.38.38,0,0,0,0-.19l-.39-9.74c0-.18-.11-.31-.25-.3h-.23a1.93,1.93,0,0,0-1.64,2.09Z" transform="translate(-129.59 -297.76)"/><path class="cls-1" d="M144.17,310.68h0c.45-.06.85.37.9,1l.79,9.89a1.43,1.43,0,0,1-1,1.61h0c-.46.06-.87-.38-.92-1l-.79-9.86A1.44,1.44,0,0,1,144.17,310.68Z" transform="translate(-129.59 -297.76)"/></g><g class="cls-2"><path class="cls-1" d="M143.7,328.91l-.16-.13a1,1,0,0,1-.17-1.13l1-2c1-2,3.08-2.61,4.63-1.27h0a1,1,0,0,1,.17,1.13l-1.12,2.26C147.11,329.64,145.16,330.18,143.7,328.91Z" transform="translate(-129.59 -297.76)"/><path class="cls-1" d="M147.2,326.93c0,.17.12.31.25.3l.25,0c.92-.06,1-.78,1.58-2a.45.45,0,0,0,0-.2l-.39-9.74c0-.18-.11-.31-.25-.3l-.23,0a1.91,1.91,0,0,0-1.64,2.08Z" transform="translate(-129.59 -297.76)"/><path class="cls-1" d="M144.17,327.31h0c.45-.06.85.37.9,1l.79,9.89a1.43,1.43,0,0,1-1,1.61h0c-.46.06-.87-.38-.92-1l-.79-9.86A1.42,1.42,0,0,1,144.17,327.31Z" transform="translate(-129.59 -297.76)"/></g><g class="cls-2"><path class="cls-1" d="M143.7,345l-.16-.14a1,1,0,0,1-.17-1.12l1-2.05c1-2,3.08-2.61,4.63-1.27h0a1,1,0,0,1,.17,1.13l-1.12,2.25C147.11,345.71,145.16,346.25,143.7,345Z" transform="translate(-129.59 -297.76)"/><path class="cls-1" d="M147.2,343c0,.17.12.3.25.29h.25c.92-.07,1-.79,1.58-2a.38.38,0,0,0,0-.19l-.39-9.75a.26.26,0,0,0-.25-.29h-.23a1.93,1.93,0,0,0-1.64,2.09Z" transform="translate(-129.59 -297.76)"/><path class="cls-1" d="M144.17,343.37h0c.45-.06.85.37.9,1l.79,9.89a1.42,1.42,0,0,1-1,1.61h0c-.46.07-.87-.37-.92-1l-.79-9.87A1.43,1.43,0,0,1,144.17,343.37Z" transform="translate(-129.59 -297.76)"/></g><g class="cls-2"><path class="cls-1" d="M143.7,360.49l-.16-.13a1,1,0,0,1-.17-1.13l1-2.05c1-2,3.08-2.61,4.63-1.27h0a1,1,0,0,1,.17,1.13l-1.12,2.25C147.11,361.22,145.16,361.76,143.7,360.49Z" transform="translate(-129.59 -297.76)"/><path class="cls-1" d="M147.2,358.51c0,.17.12.31.25.3l.25,0c.92-.06,1-.78,1.58-2a.45.45,0,0,0,0-.2l-.39-9.74c0-.18-.11-.31-.25-.3h-.23a1.93,1.93,0,0,0-1.64,2.09Z" transform="translate(-129.59 -297.76)"/><path class="cls-1" d="M144.17,358.88h0c.45-.06.85.37.9,1l.79,9.89a1.43,1.43,0,0,1-1,1.61h0c-.46.06-.87-.38-.92-1l-.79-9.86A1.44,1.44,0,0,1,144.17,358.88Z" transform="translate(-129.59 -297.76)"/></g><g class="cls-2"><path class="cls-1" d="M143.7,376.25l-.16-.13a1,1,0,0,1-.17-1.13l1-2.05c1-2,3.08-2.6,4.63-1.26h0a1,1,0,0,1,.17,1.12l-1.12,2.26C147.11,377,145.16,377.52,143.7,376.25Z" transform="translate(-129.59 -297.76)"/><path class="cls-1" d="M147.2,374.27c0,.18.12.31.25.3l.25,0c.92-.06,1-.78,1.58-2a.43.43,0,0,0,0-.19l-.39-9.75c0-.17-.11-.31-.25-.3l-.23,0a1.92,1.92,0,0,0-1.64,2.08Z" transform="translate(-129.59 -297.76)"/><path class="cls-1" d="M144.17,374.65h0c.45-.07.85.36.9,1l.79,9.89a1.42,1.42,0,0,1-1,1.61h0c-.46.06-.87-.38-.92-1l-.79-9.86A1.42,1.42,0,0,1,144.17,374.65Z" transform="translate(-129.59 -297.76)"/></g><g class="cls-2"><path class="cls-1" d="M143.7,392.17l-.16-.13a1,1,0,0,1-.17-1.13l1-2.05c1-2,3.08-2.61,4.63-1.27h0a1,1,0,0,1,.17,1.13L148.07,391C147.11,392.9,145.16,393.44,143.7,392.17Z" transform="translate(-129.59 -297.76)"/><path class="cls-1" d="M147.2,390.19c0,.17.12.31.25.3l.25,0c.92-.06,1-.79,1.58-2a.38.38,0,0,0,0-.19l-.39-9.74c0-.18-.11-.31-.25-.3h-.23a1.93,1.93,0,0,0-1.64,2.09Z" transform="translate(-129.59 -297.76)"/><path class="cls-1" d="M144.17,390.56h0c.45-.06.85.37.9,1l.79,9.89a1.44,1.44,0,0,1-1,1.62h0c-.46.06-.87-.38-.92-1l-.79-9.87A1.43,1.43,0,0,1,144.17,390.56Z" transform="translate(-129.59 -297.76)"/></g><rect class="cls-4" x="20.36" y="1.15" width="1.18" height="102.23"/><rect class="cls-4" x="22.5" y="1.15" width="2.56" height="103.8"/><rect class="cls-4" x="26.13" y="1.15" width="1.18" height="102.23"/><g class="cls-2"><path class="cls-1" d="M157.85,311.77l-.15-.14a1,1,0,0,1-.18-1.12l1-2.05c1-2,3.09-2.61,4.63-1.27h0a1,1,0,0,1,.18,1.13l-1.12,2.25C161.27,312.5,159.31,313,157.85,311.77Z" transform="translate(-129.59 -297.76)"/><path class="cls-1" d="M161.36,309.78c0,.18.11.31.25.3h.25c.91-.07,1-.79,1.57-2a.41.41,0,0,0,0-.19l-.39-9.75c0-.17-.12-.31-.25-.3l-.24,0A1.93,1.93,0,0,0,161,300Z" transform="translate(-129.59 -297.76)"/><path class="cls-1" d="M158.33,310.16h0c.45-.06.85.37.9,1L160,321a1.41,1.41,0,0,1-1,1.61h0c-.46.07-.87-.38-.92-1l-.78-9.86A1.41,1.41,0,0,1,158.33,310.16Z" transform="translate(-129.59 -297.76)"/></g><g class="cls-2"><path class="cls-1" d="M157.85,328.39l-.15-.14a1,1,0,0,1-.18-1.12l1-2.05c1-2,3.09-2.61,4.63-1.27h0a1,1,0,0,1,.18,1.13l-1.12,2.25C161.27,329.12,159.31,329.65,157.85,328.39Z" transform="translate(-129.59 -297.76)"/><path class="cls-1" d="M161.36,326.41a.26.26,0,0,0,.25.29h.25c.91-.07,1-.79,1.57-2a.38.38,0,0,0,0-.19l-.39-9.75a.29.29,0,0,0-.25-.3l-.24,0a1.93,1.93,0,0,0-1.64,2.08Z" transform="translate(-129.59 -297.76)"/><path class="cls-1" d="M158.33,326.78h0c.45-.06.85.37.9,1l.78,9.89a1.41,1.41,0,0,1-1,1.61h0c-.46.07-.87-.38-.92-1l-.78-9.86A1.42,1.42,0,0,1,158.33,326.78Z" transform="translate(-129.59 -297.76)"/></g><g class="cls-2"><path class="cls-1" d="M157.85,344.45l-.15-.13a1,1,0,0,1-.18-1.13l1-2.05c1-2,3.09-2.6,4.63-1.26h0a1,1,0,0,1,.18,1.12l-1.12,2.26C161.27,345.19,159.31,345.72,157.85,344.45Z" transform="translate(-129.59 -297.76)"/><path class="cls-1" d="M161.36,342.47c0,.18.11.31.25.3l.25,0c.91-.06,1-.78,1.57-2a.45.45,0,0,0,0-.19l-.39-9.75c0-.17-.12-.31-.25-.3l-.24,0a1.93,1.93,0,0,0-1.64,2.08Z" transform="translate(-129.59 -297.76)"/><path class="cls-1" d="M158.33,342.85h0c.45-.07.85.36.9,1l.78,9.89a1.42,1.42,0,0,1-1,1.61h0c-.46.06-.87-.38-.92-1l-.78-9.86A1.41,1.41,0,0,1,158.33,342.85Z" transform="translate(-129.59 -297.76)"/></g><g class="cls-2"><path class="cls-1" d="M157.85,360l-.15-.14a1,1,0,0,1-.18-1.12l1-2c1-2.05,3.09-2.61,4.63-1.27h0a1,1,0,0,1,.18,1.13l-1.12,2.25C161.27,360.7,159.31,361.23,157.85,360Z" transform="translate(-129.59 -297.76)"/><path class="cls-1" d="M161.36,358a.26.26,0,0,0,.25.29h.25c.91-.07,1-.79,1.57-2a.41.41,0,0,0,0-.19l-.39-9.75c0-.17-.12-.31-.25-.3l-.24,0a1.93,1.93,0,0,0-1.64,2.08Z" transform="translate(-129.59 -297.76)"/><path class="cls-1" d="M158.33,358.36h0c.45-.06.85.37.9,1l.78,9.89a1.41,1.41,0,0,1-1,1.61h0c-.46.07-.87-.38-.92-1l-.78-9.86A1.42,1.42,0,0,1,158.33,358.36Z" transform="translate(-129.59 -297.76)"/></g><g class="cls-2"><path class="cls-1" d="M157.85,375.73l-.15-.13a1,1,0,0,1-.18-1.13l1-2.05c1-2,3.09-2.61,4.63-1.27h0a1,1,0,0,1,.18,1.13l-1.12,2.25C161.27,376.46,159.31,377,157.85,375.73Z" transform="translate(-129.59 -297.76)"/><path class="cls-1" d="M161.36,373.75c0,.17.11.31.25.3l.25,0c.91-.06,1-.79,1.57-2a.38.38,0,0,0,0-.19l-.39-9.74c0-.18-.12-.31-.25-.3h-.24a1.94,1.94,0,0,0-1.64,2.09Z" transform="translate(-129.59 -297.76)"/><path class="cls-1" d="M158.33,374.12h0c.45-.06.85.37.9,1L160,385a1.43,1.43,0,0,1-1,1.62h0c-.46.06-.87-.38-.92-1l-.78-9.86A1.43,1.43,0,0,1,158.33,374.12Z" transform="translate(-129.59 -297.76)"/></g><g class="cls-2"><path class="cls-1" d="M157.85,391.65l-.15-.14a1,1,0,0,1-.18-1.13l1-2.05c1-2,3.09-2.6,4.63-1.26h0a1,1,0,0,1,.18,1.12l-1.12,2.26C161.27,392.38,159.31,392.91,157.85,391.65Z" transform="translate(-129.59 -297.76)"/><path class="cls-1" d="M161.36,389.66c0,.18.11.31.25.3l.25,0c.91-.06,1-.78,1.57-2a.45.45,0,0,0,0-.19l-.39-9.75c0-.17-.12-.31-.25-.3l-.24,0a1.93,1.93,0,0,0-1.64,2.08Z" transform="translate(-129.59 -297.76)"/><path class="cls-1" d="M158.33,390h0c.45-.07.85.37.9,1l.78,9.89a1.41,1.41,0,0,1-1,1.61h0c-.46.07-.87-.38-.92-1l-.78-9.86A1.41,1.41,0,0,1,158.33,390Z" transform="translate(-129.59 -297.76)"/></g><rect class="cls-4" x="34.51" y="0.62" width="1.18" height="102.23"/></svg>